<?xml version="1.0" encoding="utf-8"?>
<!-- Generator: Adobe Illustrator 16.0.4, SVG Export Plug-In . SVG Version: 6.00 Build 0)  -->
<!DOCTYPE svg PUBLIC "-//W3C//DTD SVG 1.1//EN" "http://www.w3.org/Graphics/SVG/1.1/DTD/svg11.dtd">
<svg version="1.1" id="Layer_1" xmlns="http://www.w3.org/2000/svg" xmlns:xlink="http://www.w3.org/1999/xlink" x="0px" y="0px"
	 width="24px" height="24px" viewBox="0 0 24 24" enable-background="new 0 0 24 24" xml:space="preserve">
<path fill="none" d="M0,0.001h24v24H0V0.001z"/>
<path d="M11.538,17.143l2.657-1.535v1.062c2.404-0.126,6.918-1.145,6.918-5.213c0-3.83-6.727-5.163-6.74-5.163
	c0.026,0,0.373-0.97,0.37-0.97c0.732,0,7.477,1.379,7.477,6.185c0,5.481-6.061,6.107-8.024,6.178v0.99L11.538,17.143z" fill="#fff" />
<path d="M12.451,6.129L9.793,7.665V6.602c-2.404,0.126-6.918,1.145-6.918,5.213c0,3.83,6.727,5.163,6.74,5.163
	c-0.026,0-0.373,0.97-0.37,0.97c-0.732,0-7.477-1.379-7.477-6.185c0-5.481,6.061-6.107,8.024-6.178v-0.99L12.451,6.129z" fill="#fff" />
<g>
	<path d="M7.79,11.2c0.254,0,0.443-0.066,0.566-0.197c0.124-0.133,0.185-0.317,0.185-0.557c0-0.2-0.065-0.367-0.194-0.498
		C8.217,9.815,8.037,9.75,7.805,9.75c-0.195,0-0.359,0.06-0.492,0.18c-0.133,0.119-0.2,0.272-0.2,0.458H6.08l-0.007-0.022
		C6.058,9.948,6.219,9.604,6.556,9.333c0.337-0.271,0.753-0.407,1.249-0.407c0.552,0,0.99,0.13,1.315,0.391
		c0.325,0.26,0.487,0.633,0.487,1.118c0,0.244-0.07,0.469-0.21,0.672c-0.14,0.204-0.333,0.365-0.577,0.482
		c0.278,0.104,0.493,0.264,0.645,0.478s0.227,0.472,0.227,0.774c0,0.488-0.176,0.872-0.529,1.151c-0.353,0.28-0.805,0.42-1.357,0.42
		c-0.486,0-0.911-0.132-1.274-0.396s-0.54-0.634-0.527-1.109l0.008-0.022h1.04c0,0.2,0.07,0.368,0.21,0.504
		c0.14,0.135,0.321,0.203,0.543,0.203c0.244,0,0.442-0.072,0.594-0.216c0.151-0.145,0.227-0.326,0.227-0.546
		c0-0.281-0.071-0.489-0.212-0.625c-0.142-0.135-0.35-0.203-0.623-0.203H7.201V11.2H7.79z" fill="#fff" />
	<path d="M12.348,8.926c0.207,0,0.399,0.02,0.576,0.057c0.178,0.038,0.353,0.094,0.526,0.167l-0.191,0.783
		c-0.166-0.056-0.314-0.098-0.446-0.126s-0.284-0.042-0.458-0.042c-0.312,0-0.564,0.12-0.756,0.359s-0.287,0.572-0.287,0.999v0.173
		c0.141-0.14,0.311-0.248,0.507-0.324c0.196-0.077,0.415-0.115,0.657-0.115c0.456,0,0.812,0.161,1.069,0.484
		c0.257,0.324,0.385,0.746,0.385,1.266c0,0.535-0.166,0.97-0.498,1.304c-0.332,0.335-0.766,0.502-1.3,0.502
		c-0.557,0-1.011-0.19-1.361-0.571c-0.35-0.381-0.525-0.902-0.525-1.564V11.16c0-0.677,0.198-1.218,0.596-1.624
		C11.237,9.129,11.739,8.926,12.348,8.926z M12.12,11.665c-0.192,0-0.356,0.031-0.492,0.094s-0.241,0.148-0.316,0.258v0.286
		c0,0.41,0.074,0.728,0.225,0.952s0.349,0.337,0.596,0.337c0.222,0,0.398-0.094,0.53-0.28s0.198-0.422,0.198-0.705
		c0-0.293-0.066-0.523-0.2-0.69C12.527,11.749,12.348,11.665,12.12,11.665z" fill="#fff"/>
	<path d="M18.08,12.405c0,0.625-0.164,1.115-0.492,1.472c-0.329,0.356-0.764,0.535-1.306,0.535c-0.547,0-0.985-0.179-1.315-0.535
		c-0.329-0.356-0.494-0.847-0.494-1.472v-1.469c0-0.623,0.164-1.113,0.493-1.473c0.328-0.358,0.765-0.538,1.309-0.538
		c0.542,0,0.979,0.18,1.31,0.538c0.331,0.359,0.496,0.85,0.496,1.473V12.405z M17.015,10.827c0-0.342-0.065-0.607-0.196-0.795
		c-0.131-0.188-0.312-0.282-0.544-0.282c-0.234,0-0.415,0.094-0.544,0.282c-0.128,0.188-0.191,0.453-0.191,0.795v1.681
		c0,0.349,0.064,0.617,0.193,0.804c0.13,0.187,0.312,0.28,0.55,0.28c0.231,0,0.412-0.094,0.54-0.28s0.192-0.455,0.192-0.804V10.827z
		" fill="#fff"/>
</g>
</svg>
