<?xml version="1.0" encoding="utf-8"?>
<!-- Generator: Adobe Illustrator 16.0.4, SVG Export Plug-In . SVG Version: 6.00 Build 0)  -->
<!DOCTYPE svg PUBLIC "-//W3C//DTD SVG 1.1//EN" "http://www.w3.org/Graphics/SVG/1.1/DTD/svg11.dtd">
<svg version="1.1" id="Layer_1" xmlns="http://www.w3.org/2000/svg" xmlns:xlink="http://www.w3.org/1999/xlink" x="0px" y="0px"
	 width="24px" height="24px" viewBox="0 0 24 24" enable-background="new 0 0 24 24" xml:space="preserve">
<path fill="none" d="M0,0h24v24H0V0z"/>
<path d="M41.538,17.143l2.657-1.535v1.062c2.404-0.126,6.918-1.146,6.918-5.213c0-3.83-6.727-5.163-6.74-5.163
	c0.025,0,0.373-0.97,0.37-0.97c0.731,0,7.478,1.379,7.478,6.185c0,5.481-6.062,6.107-8.025,6.18v0.988L41.538,17.143z"/>
<path d="M42.451,6.128l-2.658,1.536V6.601c-2.404,0.126-6.918,1.145-6.918,5.213c0,3.831,6.727,5.165,6.74,5.165
	c-0.026,0-0.373,0.97-0.37,0.97c-0.731,0-7.478-1.38-7.478-6.185c0-5.481,6.062-6.107,8.024-6.178v-0.99L42.451,6.128z"/>
<g>
	<g>
		<polygon points="12,0.552 15.949,5.323 12,4.191 8.051,5.323" fill="#fff"/>
	</g>
</g>
<g>
	<g>
		<polygon points="12,23.447 8.051,18.676 12,19.808 15.949,18.676" fill="#fff"/>
	</g>
</g>
<g>
	<g>
		<polygon points="0,12.021 4.771,8.072 3.639,12.021 4.771,15.971" fill="#fff"/>
	</g>
</g>
<g>
	<g>
		<polygon points="24,12.021 19.229,15.971 20.36,12.021 19.229,8.072" fill="#fff"/>
	</g>
</g>
<path d="M9.577,9.934c-0.59,0.778-0.991,1.506-1.202,2.185c-0.209,0.68-0.315,1.478-0.315,2.397v0.771H6.905v-0.771
	c0-0.888,0.133-1.698,0.4-2.434c0.267-0.736,0.655-1.452,1.165-2.148H5.787V8.976h3.79V9.934z" fill="#fff"/>

<path d="M13.927,15.288h-3.726v-0.815l1.684-2.206c0.239-0.336,0.412-0.624,0.516-0.867c0.104-0.243,0.156-0.464,0.156-0.664
	c0-0.275-0.051-0.492-0.152-0.652s-0.258-0.241-0.469-0.241c-0.22,0-0.39,0.102-0.508,0.305c-0.119,0.204-0.178,0.465-0.178,0.783
	h-1.157l-0.013-0.025c-0.011-0.564,0.153-1.042,0.493-1.433s0.794-0.588,1.362-0.588c0.576,0,1.022,0.166,1.338,0.497
	s0.474,0.781,0.474,1.351c0,0.385-0.091,0.738-0.272,1.062c-0.184,0.323-0.489,0.757-0.918,1.296l-0.827,1.244h2.197V15.288z" fill="#fff"/>

	<path d="M18.416,12.998c0,0.744-0.179,1.326-0.533,1.749c-0.355,0.422-0.824,0.632-1.405,0.632c-0.59,0-1.063-0.21-1.42-0.632
	c-0.356-0.423-0.535-1.005-0.535-1.749v-1.729c0-0.736,0.178-1.318,0.533-1.745c0.355-0.426,0.826-0.639,1.413-0.639
	c0.584,0,1.055,0.213,1.411,0.639c0.357,0.427,0.536,1.009,0.536,1.745V12.998z M17.189,11.161c0-0.416-0.064-0.74-0.193-0.971
	s-0.305-0.347-0.527-0.347c-0.228,0-0.405,0.116-0.531,0.347c-0.125,0.231-0.188,0.555-0.188,0.971V13.1
	c0,0.424,0.063,0.751,0.191,0.981c0.127,0.229,0.307,0.345,0.537,0.345c0.223,0,0.396-0.115,0.522-0.345
	c0.126-0.23,0.189-0.558,0.189-0.981V11.161z" fill="#fff"/>
</svg>
