<?xml version="1.0" encoding="utf-8"?>
<!-- Generator: Adobe Illustrator 16.0.4, SVG Export Plug-In . SVG Version: 6.00 Build 0)  -->
<!DOCTYPE svg PUBLIC "-//W3C//DTD SVG 1.1//EN" "http://www.w3.org/Graphics/SVG/1.1/DTD/svg11.dtd">
<svg version="1.1" id="Layer_1" xmlns="http://www.w3.org/2000/svg" xmlns:xlink="http://www.w3.org/1999/xlink" x="0px" y="0px"
	 width="24px" height="24px" viewBox="0 0 24 24" enable-background="new 0 0 24 24" xml:space="preserve">
<path fill="#fff" d="M16.527,14.78h-0.92l-0.326-0.313c1.141-1.328,1.828-3.051,1.828-4.925c0-4.18-3.389-7.568-7.568-7.568
	c-4.18,0-7.568,3.388-7.568,7.568c0,4.179,3.388,7.568,7.568,7.568c1.874,0,3.597-0.688,4.925-1.828l0.313,0.326v0.92l5.821,5.81
	l1.735-1.735L16.527,14.78z M9.542,14.78c-2.899,0-5.239-2.34-5.239-5.239c0-2.899,2.34-5.239,5.239-5.239
	c2.899,0,5.239,2.34,5.239,5.239C14.78,12.44,12.44,14.78,9.542,14.78z"/>
<polygon fill="#fff" points="13.445,8.984 10.075,8.984 10.075,5.612 8.91,5.612 8.91,8.984 5.539,8.984 5.539,10.148 8.91,10.148 8.91,13.52
	10.075,13.52 10.075,10.148 13.445,10.148 "/>
<path fill="none" d="M0,0h24v24H0V0z"/>
</svg>
